<svg width="360" height="500" viewBox="0 0 360 500" fill="none" xmlns="http://www.w3.org/2000/svg">
<path d="M156.253 0.799805C156.35 1.62171 156.447 2.4442 156.547 3.29102C156.682 4.41068 156.818 5.53076 156.953 6.65039C157.016 7.18696 157.079 7.72354 157.144 8.27637C157.522 11.3755 157.99 14.4403 158.562 17.5098C159.78 24.0505 160.774 30.6277 161.803 37.2002C162.006 38.496 162.21 39.7921 162.414 41.0879C162.82 43.671 163.226 46.2546 163.631 48.8379C164.633 55.226 165.644 61.613 166.653 68H167.453C167.55 68.8405 167.647 69.681 167.747 70.5469C168.363 75.761 168.978 80.9074 170.203 86.0186C172.803 97.4653 174.082 109.158 175.453 120.8C173.869 121.592 173.869 121.592 172.253 122.4C171.989 121.608 171.725 120.816 171.453 120H166.653C166.917 121.848 167.181 123.696 167.453 125.6C169.829 126.392 172.205 127.184 174.653 128C173.853 131.2 173.853 131.2 172.253 133.6C172.404 135.267 172.404 135.268 172.953 136.95C173.25 137.957 173.548 138.963 173.854 140L177.053 140.8C179.248 138.696 179.665 136.987 179.753 134.05C179.649 130.88 179.011 128.962 177.053 126.4C176.525 125.608 175.997 124.816 175.453 124C177.739 122.314 178.896 121.551 181.775 121.807C188.321 123.677 193.141 125.272 197.854 130.4C198.038 129.604 198.222 128.808 198.412 127.987C199.428 124.439 201.272 121.649 203.303 118.6C206.512 113.644 209.242 108.693 211.453 103.2H213.053C212.789 102.408 212.525 101.616 212.253 100.8C212.781 100.272 213.31 99.7442 213.854 99.2002C214.867 95.0402 214.84 91.9106 213.053 88C213.353 86.15 213.354 86.1498 213.854 84.7998C215.619 84.8092 215.619 84.8091 217.854 85.5996C219.402 87.5203 220.479 89.6606 221.604 91.8496L222.549 93.6074C223.701 95.7606 224.838 97.8983 225.803 100.143C226.599 101.875 226.599 101.876 229.053 102.4C229.968 103.342 230.883 104.285 231.797 105.229C238.158 111.162 245.38 114.123 254.057 113.822C270 112.212 282.771 100.126 293.053 88.7998C296.685 84.3274 299.438 79.6181 301.854 74.4004H303.453C303.725 73.6084 303.725 73.6078 304.003 72.7998C307.732 64.2756 307.733 64.2758 312.253 62.4004C311.804 65.7257 311.035 68.4486 309.653 71.5C307.109 77.3909 305.284 83.4591 303.453 89.5996H301.854C301.738 90.5401 301.622 91.4812 301.503 92.4502C301.122 95.5057 300.697 98.5527 300.253 101.6H298.653C298.614 102.112 298.575 102.625 298.534 103.153C298.474 103.845 298.415 104.537 298.354 105.25C298.298 105.927 298.242 106.605 298.185 107.303C297.853 109.6 297.853 109.6 297.078 112.31C291.72 131.083 291.398 169.49 300.253 187.2C302.681 205.453 303.932 226.985 298.653 244.8C298.538 245.691 298.422 246.582 298.303 247.5C297.752 251.048 296.641 254.223 295.453 257.6C295.086 258.749 294.72 259.9 294.354 261.05C289.923 274.161 283.302 287.167 274.153 297.65C272.527 299.663 271.441 301.43 270.253 303.7C268.623 306.753 266.984 308.255 264.253 310.4C262.729 312.48 261.301 314.603 259.894 316.763C259.484 317.303 259.075 317.844 258.653 318.4H257.053C256.855 318.866 256.657 319.332 256.453 319.812C255.305 321.865 254.032 323.069 252.253 324.6C251.692 325.09 251.131 325.582 250.553 326.088C249.053 327.2 249.053 327.2 247.453 327.2V328.8C244.983 330.212 244.066 330.4 241.053 330.4C242.133 327.287 243.521 325.151 245.653 322.65C256.809 308.908 258.337 294.873 257.053 277.6C255.859 267.586 250.813 251.327 242.653 244.8C239.287 242.3 236.465 242.098 232.403 242.25C231.572 242.266 231.572 242.267 230.724 242.283C229.367 242.311 228.01 242.354 226.653 242.4V244H224.253V245.6C223.164 246.268 223.164 246.268 222.053 246.95C219.045 249.09 217.804 251.167 216.253 254.4C215.855 255.162 215.457 255.924 215.047 256.709C211.996 262.818 210.498 268.411 209.854 275.2H206.653C206.566 274.524 206.478 273.847 206.388 273.15C205.38 264.064 205.38 264.064 200.753 256.5C197.086 254.23 194.221 253.065 189.854 253.6C187.336 255.056 187.335 255.056 185.053 256.8C183.998 257.355 182.936 257.901 181.854 258.4C181.854 256 181.853 256 183.003 254.25C184.99 250.673 185.488 247.269 184.453 243.3C183.483 241.368 183.482 241.368 181.053 240C178.986 239.8 178.986 239.8 177.053 240C175.35 241.703 175.803 244.569 175.803 246.828C176.57 251.556 178.9 255.508 181.175 259.675C182.653 262.4 182.653 262.4 183.453 264.8H185.053C186.259 266.087 186.259 266.088 187.553 267.8C187.984 268.357 188.415 268.914 188.859 269.487C189.853 271.2 189.854 271.2 189.854 274.4H187.453C186.459 273.223 185.469 272.041 184.525 270.822C183.082 269.177 181.338 268.277 179.453 267.2V265.6C176.944 264.328 174.409 263.126 171.854 261.95C171.103 261.603 170.352 261.255 169.578 260.896C167.783 260.139 166.139 259.642 164.253 259.2C164.269 260.584 164.269 260.584 164.286 261.995C165.031 325.974 165.093 389.946 164.928 453.928C164.923 455.893 164.918 457.858 164.913 459.823C164.844 486.945 164.764 514.066 164.682 541.188C164.647 552.645 164.612 564.104 164.578 575.562C164.574 577.115 164.574 577.116 164.569 578.701C164.519 595.946 164.471 613.191 164.426 630.436C164.398 640.977 164.367 651.518 164.332 662.059C164.309 669.205 164.287 676.352 164.269 683.498C164.258 687.613 164.246 691.728 164.23 695.843C164.216 699.601 164.206 703.36 164.198 707.118C164.195 708.48 164.19 709.842 164.184 711.203C164.175 713.046 164.171 714.889 164.169 716.731C164.166 717.756 164.163 718.781 164.16 719.837C164.236 721.931 164.424 723.617 165.053 725.6C165.795 725.699 166.538 725.798 167.303 725.9C169.853 726.4 169.853 726.4 172.253 728V730.4C171.395 730.714 170.537 731.027 169.653 731.35C166.705 732.633 165.121 733.977 163.453 736.8C162.811 739.752 162.812 739.752 162.653 742.4C164.615 742.315 164.615 742.315 166.653 741.6C167.753 739.619 167.753 739.618 168.253 737.6C170.203 737.9 170.203 737.9 172.253 738.4C175.883 745.66 170.583 760.619 168.672 767.966C165.458 780.511 162.995 793.259 160.603 805.981C159.312 812.818 157.983 819.659 156.253 826.4H152.253C149.193 817.805 147.449 809.062 146.011 800.075C144.871 793.065 143.357 786.139 141.854 779.2C141.516 777.635 141.181 776.068 140.854 774.5C140.734 773.941 140.613 773.382 140.49 772.807C140.212 770.922 140.213 769.102 140.253 767.2H138.653C138.27 765.034 137.886 762.867 137.503 760.7C137.395 760.092 137.288 759.483 137.177 758.856C136.964 757.655 136.753 756.452 136.544 755.25C136.3 753.865 136.041 752.481 135.778 751.1C135.407 748.473 135.376 745.952 135.403 743.3C135.411 742.378 135.417 741.456 135.425 740.506C135.439 739.464 135.439 739.464 135.453 738.4C136.509 738.136 137.565 737.872 138.653 737.6V739.2H140.253C140.517 740.256 140.781 741.312 141.053 742.4H145.053C144.847 741.248 144.629 740.098 144.403 738.95C144.283 738.31 144.161 737.669 144.037 737.01C143.387 734.997 142.572 734.219 141.053 732.8V731.2C139.205 730.936 137.357 730.672 135.453 730.4V728C137.829 726.944 140.205 725.888 142.653 724.8L143.453 257.6C142.397 257.864 141.341 258.128 140.253 258.4V260C138.871 260.769 137.488 261.535 136.104 262.3C135.333 262.727 134.562 263.154 133.769 263.594C131.695 264.674 129.639 265.577 127.453 266.4V268C123.877 271.2 123.877 271.2 121.854 271.2C121.326 272.256 120.797 273.312 120.253 274.4H117.854C118.286 271.068 119.318 269.164 121.403 266.55C121.897 265.918 122.392 265.286 122.9 264.635C123.347 264.161 123.793 263.688 124.253 263.2H125.854C126.019 262.474 126.184 261.748 126.354 261C127.172 258.04 128.512 255.506 129.953 252.8C132.487 247.868 133.174 244.577 131.453 239.2C128.678 239.567 126.114 239.913 123.453 240.8V243.2H121.854C121.434 249.608 121.434 249.608 124.253 255.2C125.045 256.388 125.046 256.388 125.854 257.6C122.471 257.467 120.698 257.173 118.072 254.972C115.137 251.211 115.894 246.678 116.104 242.15C116.425 233.241 116.474 226.358 110.903 219.1C110.541 218.615 110.177 218.13 109.804 217.631C104.003 209.993 95.958 202.302 86.6533 199.2V197.6C85.9976 197.385 85.3416 197.171 84.666 196.95C82.6622 196.273 80.6755 195.577 78.6904 194.85C78.1285 194.645 77.5663 194.442 76.9873 194.231C75.8422 193.815 74.6987 193.394 73.5566 192.969C66.3058 190.354 59.3026 189.286 51.6035 189.3L49.2783 189.304C41.0113 189.446 34.2351 191.131 27.4531 196H24.2529C23.9686 194.309 23.9686 194.309 24.2529 192C25.7201 190.168 27.1126 188.649 28.8027 187.05C29.2673 186.599 29.7323 186.148 30.2109 185.684C41.425 174.996 41.4251 174.996 47.3027 172.734L49.0527 172C49.3167 171.208 49.5815 170.416 49.8535 169.6C51.0908 168.644 51.0914 168.644 52.6816 167.729C53.5547 167.22 53.5545 167.22 54.4453 166.701C55.3646 166.181 55.3651 166.181 56.3027 165.65C56.8942 165.306 57.4864 164.962 58.0957 164.607C68.8623 158.4 68.8625 158.4 71.4531 158.4V156.8C81.8195 151.048 93.093 147.609 104.354 144.05L105.975 143.537C109.653 142.4 109.653 142.4 111.453 142.4C111.513 141.906 111.573 141.412 111.635 140.903C112.65 134.363 115.141 129.666 120.053 125.2C122.803 123.367 124.265 123.108 127.553 123.15C128.281 123.158 129.01 123.164 129.76 123.172C130.598 123.186 130.598 123.186 131.453 123.2C129.98 126.989 129.979 126.99 128.953 128.7C127.906 131.243 128.018 133.275 128.253 136C129.359 138.681 129.359 138.681 130.653 140.8C132.219 140.641 132.22 140.641 133.854 140C134.788 138.581 134.788 138.581 135.303 136.85C135.506 136.281 135.71 135.713 135.919 135.128C136.434 133.542 136.433 133.542 135.453 132C134.661 131.736 133.869 131.472 133.053 131.2C133.317 129.88 133.582 128.56 133.854 127.2C134.596 127.233 135.339 127.266 136.104 127.3C138.78 127.417 138.779 127.417 141.053 125.6C141.942 122.741 141.942 122.741 141.053 120C138.437 120.451 137.192 121.2 135.453 123.2C134.661 122.672 133.869 122.144 133.053 121.6C132.79 120.15 132.791 120.15 132.854 118.4C132.876 117.756 132.898 117.111 132.922 116.447C133.266 111.08 133.907 105.927 135.025 100.666C135.544 97.9213 135.899 95.1711 136.253 92.4004C136.857 87.6817 137.626 83.0447 138.653 78.4004H140.253C140.283 77.6919 140.313 76.9829 140.344 76.2529C140.657 70.3456 141.261 64.6518 142.358 58.8281C143.528 52.5735 144.485 46.2881 145.453 40C146.67 32.119 147.926 24.2512 149.359 16.4062C150.008 12.7198 150.533 9.01904 151.031 5.30957C151.437 3.28077 152.03 1.78657 153.053 0C154.637 0.395985 154.637 0.39585 156.253 0.799805ZM150.653 255.2C150.034 257.677 149.753 259.286 149.753 261.747C149.751 262.414 149.749 263.081 149.747 263.768C149.749 264.497 149.75 265.228 149.752 265.979C149.751 266.76 149.75 267.54 149.749 268.344C149.746 270.98 149.749 273.616 149.752 276.252C149.751 278.152 149.75 280.053 149.748 281.953C149.745 286.096 149.745 290.239 149.747 294.382C149.75 300.542 149.749 306.704 149.746 312.864C149.742 323.866 149.742 334.868 149.744 345.869C149.746 355.497 149.747 365.125 149.746 374.753C149.746 375.391 149.746 376.029 149.746 376.687C149.746 379.276 149.745 381.866 149.745 384.456C149.743 408.764 149.745 433.072 149.749 457.38C149.753 478.986 149.753 500.593 149.749 522.199C149.745 546.461 149.743 570.722 149.745 594.983C149.745 597.569 149.746 600.154 149.746 602.739C149.746 603.376 149.746 604.013 149.746 604.669C149.747 614.291 149.746 623.914 149.744 633.536C149.742 644.476 149.743 655.416 149.747 666.355C149.749 672.481 149.749 678.607 149.746 684.733C149.744 689.3 149.746 693.867 149.75 698.435C149.751 700.288 149.751 702.141 149.749 703.994C149.747 706.503 149.748 709.012 149.752 711.521C149.75 712.248 149.749 712.976 149.747 713.726C149.757 717.021 149.978 719.966 150.653 723.2C149.953 725.7 149.953 725.7 149.053 728C148.078 730.925 148.807 731.748 150.028 734.435C151.596 738.362 151.761 741.41 150.503 745.45C149.105 747.908 148.301 749.066 145.854 750.4C144.792 750.685 143.725 750.954 142.653 751.2C143.284 754.784 143.918 758.367 144.553 761.95C144.73 762.958 144.908 763.966 145.091 765.005C145.918 769.661 146.778 774.291 147.839 778.899C148.79 783.26 149.551 787.66 150.354 792.05C150.629 793.546 150.628 793.547 150.909 795.073C151.358 797.515 151.806 799.958 152.253 802.4H153.854V807.2H154.653C154.917 803.24 155.181 799.28 155.453 795.2H157.053C157.192 794.4 157.331 793.6 157.475 792.775C159.039 783.818 160.703 774.882 162.403 765.95C162.662 764.586 162.921 763.221 163.18 761.857C163.803 758.571 164.428 755.286 165.053 752C164.569 751.777 164.086 751.555 163.588 751.325C160.792 749.834 158.475 747.644 157.053 744.8H155.453V738.4H157.053C157.499 736.988 157.93 735.57 158.354 734.15C158.595 733.362 158.835 732.572 159.084 731.76C159.736 729.43 159.737 729.43 157.854 727.2C157.654 725.661 157.654 725.661 157.654 723.881C157.651 723.2 157.647 722.519 157.644 721.817C157.648 721.068 157.652 720.318 157.656 719.546C157.654 718.748 157.652 717.949 157.65 717.127C157.646 714.426 157.654 711.724 157.661 709.022C157.66 707.077 157.658 705.131 157.656 703.186C157.653 698.942 157.656 694.698 157.662 690.454C157.672 684.144 157.672 677.834 157.671 671.523C157.669 660.91 157.674 650.295 157.684 639.682C157.693 629.169 157.699 618.657 157.701 608.145C157.701 607.491 157.701 606.838 157.701 606.165C157.702 602.849 157.703 599.532 157.703 596.216C157.706 572.711 157.717 549.205 157.732 525.7C157.747 502.862 157.759 480.024 157.766 457.187C157.766 456.483 157.765 455.779 157.766 455.054C157.768 447.987 157.77 440.921 157.771 433.854C157.776 419.459 157.78 405.063 157.785 390.667C157.785 390.005 157.786 389.343 157.786 388.661C157.801 344.441 157.827 300.22 157.854 256C155.478 255.736 153.101 255.472 150.653 255.2ZM129.611 15.3359C139.337 12.3707 139.337 12.3707 144.253 13.5996V21.5996C138.238 23.9724 132.091 25.7039 125.869 27.4453C118.506 29.5457 111.592 32.2154 104.753 35.6504C103.823 36.1133 102.893 36.5758 101.935 37.0527C99.8529 38.1827 98.1216 39.3665 96.2529 40.7998C94.9483 41.5382 93.6301 42.2536 92.3027 42.9502C88.8041 44.838 85.3556 46.7939 81.9531 48.8496C81.1137 49.3539 80.2741 49.8584 79.4092 50.3779C76.9723 52.0553 75.1081 53.878 73.0527 56C71.3181 57.5714 69.5388 59.087 67.7529 60.5996C67.2951 60.9946 66.837 61.3899 66.3652 61.7969C64.3396 63.5163 62.7979 64.7513 60.2529 65.5996C59.7104 66.6615 59.179 67.7295 58.6533 68.7998C57.5222 70.0008 56.3513 71.1655 55.1533 72.2998C53.014 74.3774 51.0851 76.317 49.5029 78.8496C49.0904 79.4931 48.6779 80.1368 48.2529 80.7998H46.6533C46.4389 81.3937 46.2239 81.9877 46.0029 82.5996C45.0907 84.7121 44.1782 86.2845 42.6533 88H41.0527C40.8306 88.5896 40.6087 89.1797 40.3799 89.7871C39.5306 91.8149 38.5875 93.5541 37.4219 95.4121C37.0264 96.0516 36.6311 96.6917 36.2236 97.3506C35.8045 98.0268 35.385 98.7037 34.9531 99.4004C29.6421 108.106 25.101 117.006 21.584 126.582C20.9665 128.232 20.2608 129.837 19.5527 131.45C12.4092 149.323 10.4666 168.929 10.4033 188C10.3998 188.942 10.3991 188.943 10.3955 189.904C10.3833 204.364 12.0157 218.333 15.79 232.325C16.2534 234.4 16.2529 234.4 16.2529 237.6H17.8535C18.3815 240.768 18.9091 243.936 19.4531 247.2H21.0527C21.3043 247.867 21.5562 248.534 21.8154 249.222C23.6172 253.959 25.4682 258.64 27.5811 263.247C28.2528 264.8 28.2534 264.8 29.1533 267.6C29.6359 269.723 29.6357 269.724 31.4531 270.4C32.0377 272.251 32.5739 274.119 33.0527 276H34.6533C35.6626 277.469 35.6622 277.469 36.8027 279.5C39.9321 284.889 43.3368 290.067 47.4033 294.8C49.0533 296.8 49.0527 296.8 49.0527 298.4H50.6533C54.6529 302.781 54.6533 302.781 54.6533 304.8H56.2529C57.3241 306.091 58.3937 307.383 59.4561 308.682C62.0555 311.479 65.0834 313.731 68.0967 316.065C68.6762 316.572 69.2564 317.078 69.8535 317.6V319.2C70.2813 319.395 70.7096 319.59 71.1504 319.791C73.5467 321.062 75.6873 322.586 77.9033 324.15C91.172 333.447 106.518 343.748 122.653 347.2V348.8C123.309 348.897 123.965 348.994 124.641 349.094C125.503 349.228 126.365 349.362 127.253 349.5C128.107 349.63 128.961 349.76 129.841 349.894C132.253 350.4 132.253 350.4 135.453 352V362.4C132.402 361.79 129.417 361.111 126.403 360.35C125.121 360.026 125.121 360.027 123.812 359.697C122.843 359.451 122.842 359.451 121.854 359.2V357.6C120.65 357.471 120.65 357.472 119.422 357.341C116.21 356.88 113.331 355.806 110.354 354.55C109.834 354.336 109.314 354.122 108.778 353.902C104.838 352.274 100.932 350.569 97.0527 348.8V347.2C95.8898 346.953 95.8897 346.953 94.7031 346.7C91.4235 345.765 88.9557 344.066 86.1816 342.125C83.5245 340.299 80.7595 338.676 77.9844 337.037C76.5832 336.197 75.2127 335.307 73.8535 334.4V332.8C73.408 332.585 72.9619 332.371 72.5029 332.15C70.4832 331.113 68.5436 330.06 66.6533 328.8V327.2C65.3334 326.672 64.0133 326.144 62.6533 325.6V324C61.9851 323.728 61.9845 323.728 61.3027 323.45C59.4481 322.398 58.1862 321.186 56.7041 319.672C55.2303 318.173 53.7297 316.703 52.2285 315.231C51.0368 314.055 49.8448 312.877 48.6533 311.7C48.0563 311.117 47.4588 310.533 46.8438 309.932C43.4399 306.558 40.4356 303.247 37.8535 299.2V297.6H36.2529C34.9442 295.977 33.7402 294.359 32.5527 292.65C32.1984 292.147 31.8446 291.642 31.4795 291.123C27.0542 284.767 22.7553 278.25 19.4375 271.237C18.8519 270.015 18.2314 268.809 17.5938 267.612C10.5409 254.21 5.78444 239.202 2.45312 224.45C2.32248 223.873 2.19222 223.296 2.05762 222.701C0.471967 215.356 0.119981 208.137 0.0908203 200.635C0.0862603 199.706 0.0818467 198.777 0.0771484 197.82C0.0696207 195.859 0.0636412 193.898 0.0605469 191.937C0.0528371 188.989 0.0282039 186.043 0.00292969 183.096C-0.0774212 165.19 1.76463 148.003 8.25293 131.2C8.64528 130.144 9.03597 129.086 9.4248 128.028C9.81751 126.969 10.2108 125.909 10.6035 124.85C10.7947 124.329 10.9856 123.807 11.1826 123.271C13.694 116.518 16.705 110.168 20.2529 103.9C20.5932 103.293 20.9336 102.685 21.2842 102.06C22.2693 100.304 23.2605 98.5514 24.2529 96.7998C24.5352 96.2967 24.8176 95.7937 25.1084 95.2754C30.1846 86.2771 36.0446 77.6325 43.4531 70.4004C44.6257 69.1057 45.7917 67.8047 46.9531 66.5C51.2231 61.7351 55.5822 57.2493 60.5127 53.166C61.8969 52.0031 61.897 52.0028 63.1875 50.5723C65.8913 48.0043 68.9045 45.9379 71.9531 43.7998C72.8842 43.1348 72.8841 43.1345 73.834 42.4561C74.428 42.0374 75.0228 41.6189 75.6348 41.1875C76.1756 40.8058 76.7162 40.4236 77.2734 40.0303C78.6527 39.1998 78.653 39.2002 80.2529 39.2002V37.5996C82.145 36.3101 84.0232 35.1426 86.0029 34C86.6106 33.648 87.2187 33.2962 87.8447 32.9336C100.523 25.7158 113.502 20.2288 127.453 16C128.165 15.781 128.877 15.5616 129.611 15.3359ZM313.053 70.4004C316.565 73.1252 319.194 75.9134 321.703 79.5996C322.043 80.0878 322.383 80.5761 322.732 81.0791C323.434 82.089 324.133 83.1015 324.829 84.1152C325.798 85.5208 326.782 86.9155 327.771 88.3066C333.612 96.5786 338.48 104.763 342.204 114.172C343.569 117.608 345.065 120.88 346.803 124.15C355.17 140.619 358.27 163.249 357.853 181.6H359.453V193.6H357.853C357.823 194.636 357.794 195.673 357.763 196.74C357.197 213.077 355.711 231.344 348.919 246.443C348.247 248.013 347.823 249.536 347.453 251.2H345.853C345.803 251.959 345.754 252.718 345.703 253.5C345.215 256.821 343.881 259.399 342.318 262.344C341.344 264.235 340.438 266.12 339.562 268.057C336.569 274.671 333.425 280.574 329.053 286.4C327.917 288.082 326.784 289.765 325.653 291.45C321.837 297.035 317.486 302.101 313.053 307.2C312.102 308.35 311.152 309.5 310.203 310.65C309.56 311.36 308.916 312.069 308.253 312.8H306.653C306.439 313.278 306.224 313.757 306.003 314.25C305.054 315.999 304.177 317.131 302.653 318.4H301.053C300.888 318.862 300.723 319.324 300.553 319.8C299.055 322.251 297.077 323.324 294.653 324.8C292.253 321.8 292.253 321.8 292.253 320H290.653C290.389 318.68 290.125 317.36 289.853 316C290.268 315.651 290.684 315.302 291.112 314.943C294.532 312.023 297.439 309.098 300.253 305.6L304.253 301.6C310.711 294.746 315.802 287.286 320.669 279.244C321.06 278.702 321.45 278.158 321.853 277.6H323.453C323.653 276.927 323.853 276.255 324.06 275.562C325.15 272.531 326.591 269.804 328.153 267C330.673 262.367 332.871 257.772 334.653 252.8C334.981 251.901 335.309 251.002 335.646 250.075C336.665 247.256 337.66 244.428 338.653 241.6C338.876 241.003 339.099 240.406 339.328 239.791C341.413 234.023 342.59 227.998 343.826 222.004C344.243 220.049 344.703 218.109 345.169 216.166C351.756 187.035 346.506 156.96 336.903 129.15C334.451 122.037 334.45 122.036 333.853 118.4H332.253C332.085 117.912 331.916 117.423 331.743 116.919C329.074 109.874 325.315 103.613 321.42 97.1836C320.973 96.4455 320.526 95.7077 320.065 94.9473C319.659 94.2836 319.253 93.6193 318.835 92.9355C317.853 91.1999 317.853 91.1998 317.053 88.7998L314.653 88C312.152 85.175 310.393 82.1146 310.253 78.2998C310.659 75.1549 311.431 73.1034 313.053 70.4004ZM269.053 310.4L265.053 314.4C265.053 312.001 265.053 312 266.253 310.65C266.847 310.131 266.847 310.13 267.453 309.6C267.981 309.864 268.509 310.128 269.053 310.4ZM290.653 101.6C289.861 101.864 289.069 102.128 288.253 102.4C287.141 105.503 286.653 107.892 286.653 111.2H285.053C284.66 112.614 284.28 114.032 283.903 115.45C283.69 116.239 283.476 117.028 283.256 117.841C279.364 136.936 282.028 156.978 285.053 176H286.653C286.752 177.023 286.851 178.046 286.953 179.1C287.243 181.699 287.625 184.239 288.153 186.8C288.289 187.474 288.425 188.149 288.565 188.844C288.926 190.584 289.303 192.322 289.69 194.057C294.457 216.694 291.443 240.642 281.854 261.6C281.336 262.749 280.818 263.899 280.303 265.05C280.048 265.611 279.794 266.172 279.531 266.75C278.814 268.424 278.148 270.099 277.5 271.8C277.294 272.335 277.088 272.87 276.876 273.421C276.469 274.484 276.07 275.55 275.679 276.618C274.46 279.791 273.138 281.719 270.653 284C266.686 289.216 264.361 293.395 264.253 300C266.274 298.098 267.475 296.161 268.812 293.729C270.567 290.815 272.626 288.124 274.653 285.396C277.669 281.256 280.024 277.359 281.803 272.55C283.396 268.373 285.131 264.528 287.547 260.744C288.429 258.816 288.376 257.296 288.253 255.2H289.854C297.228 226.311 296.214 197.887 289.854 168.8C289.458 168.404 289.457 168.404 289.053 168C287.614 161.401 287 154.674 286.503 147.95C286.434 147.014 286.365 146.076 286.293 145.111C285.769 137.215 285.852 129.47 286.653 121.6C286.711 121.02 286.769 120.44 286.828 119.843C287.109 117.303 287.379 115.343 288.553 113.05C290.578 108.921 291.315 104.483 292.253 100H290.653V101.6ZM151.932 38.6689C151.79 39.4711 151.648 40.2731 151.503 41.0996C151.364 41.8978 151.224 42.6962 151.081 43.5186C150.653 45.5998 150.654 45.6002 149.854 47.2002C149.798 48.2989 149.785 49.4001 149.803 50.5C149.819 51.5229 149.837 52.5457 149.854 53.5996L151.453 52.7998C151.849 58.7398 151.849 58.74 152.253 64.7998H150.653C150.389 61.368 150.126 57.9362 149.854 54.4004H149.053C148.907 55.5601 148.908 55.5607 148.76 56.7441C147.531 66.2924 147.531 66.2928 146.653 70.4004C145.745 74.6592 145.229 78.9549 144.703 83.2754C144.368 85.6027 143.967 87.8474 143.484 90.1436C142.508 94.8977 141.927 99.6833 141.354 104.5C141.246 105.38 141.139 106.26 141.028 107.166C140.767 109.31 140.509 111.455 140.253 113.6C141.028 113.979 141.805 114.359 142.604 114.75C145.053 116 145.054 116 145.854 116.8C146.272 121.6 146.516 125.644 143.453 129.6V131.2H141.854C141.833 131.847 141.812 132.493 141.791 133.159C141.419 140.17 141.419 140.17 139.604 143.3C136.901 145.617 135.502 146.323 131.903 146.65C128.067 146.314 126.172 145.279 123.653 142.4C122.144 138.777 122.051 135.092 121.854 131.2C117.125 134.951 116.328 140.725 115.453 146.4C114.842 146.585 114.23 146.769 113.6 146.959C106.71 149.057 99.8762 151.297 93.0527 153.6V155.2C92.5156 155.281 91.9782 155.361 91.4248 155.443C88.492 156.131 85.8418 157.275 83.1035 158.5C82.5494 158.745 81.9948 158.99 81.4238 159.242C75.878 161.719 70.454 164.424 65.0527 167.2V168.8C62.677 169.592 62.6768 169.592 60.2529 170.4V172C57.8771 172.792 57.8769 172.792 55.4531 173.6V174.4C56.4926 174.367 57.5325 174.334 58.6035 174.3C61.9539 174.295 64.9183 174.792 68.1592 175.6C70.0228 176.072 70.0232 176.072 72.6533 176.35C76.1703 176.915 79.3108 177.994 82.6533 179.2C83.8302 179.579 83.8304 179.579 85.0312 179.966C90.9022 181.985 95.5569 184.673 100.447 188.417C102.436 189.937 104.187 191.174 106.528 192.091C107.097 192.325 107.667 192.559 108.253 192.8C108.517 193.592 108.781 194.384 109.053 195.2C110.373 196.305 111.696 197.408 113.025 198.503C115.521 200.797 117.516 203.431 119.578 206.112C121.09 208.11 121.09 208.111 123.153 210.2C127.726 215.608 129.83 223.86 132.253 230.4C133.45 233.48 135.254 234.8 137.854 236.8C138.118 237.328 138.381 237.856 138.653 238.4H140.253C141.319 246.846 141.319 246.847 140.253 250.4C141.177 250.136 142.101 249.872 143.053 249.6C150.989 247.842 159.666 248.175 167.453 250.4C167.435 249.687 167.416 248.973 167.396 248.237C167.382 247.301 167.368 246.365 167.354 245.4C167.335 244.472 167.316 243.544 167.297 242.588C167.445 240.138 167.766 238.846 169.053 236.8H170.653L172.153 235.3C173.817 233.637 174.883 232.834 177.053 232C180.958 232.245 185.358 233.353 188.253 236C190.203 239.739 191.453 242.96 191.453 247.2C194.093 247.464 196.733 247.728 199.453 248V249.6C199.945 249.86 200.437 250.122 200.943 250.391C201.59 250.74 202.237 251.09 202.903 251.45C203.544 251.794 204.184 252.136 204.844 252.49C206.523 253.52 207.736 254.547 209.053 256V251.2H210.653V249.6L212.253 248.8C212.898 247.937 213.512 247.051 214.104 246.15C218.66 239.66 225.453 236.671 233.053 235.2C238.393 234.504 243.355 236.82 247.8 239.631C250.764 242.473 252.633 245.746 254.653 249.3C255.077 250.045 255.501 250.79 255.938 251.558C261.399 261.522 263.725 271.984 265.053 283.2C267.125 280.736 268.773 278.456 270.053 275.5C270.455 274.594 270.455 274.593 270.865 273.669C271.586 271.918 271.586 271.917 271.453 269.6H273.053C280.785 251.726 285.147 234.438 285.253 214.95C285.264 213.519 285.264 213.519 285.275 212.059C285.255 206.49 284.737 201.41 283.453 196C282.981 193.518 282.517 191.034 282.057 188.55C281.461 185.346 280.848 182.147 280.216 178.95C280.001 177.855 280.001 177.855 279.782 176.738C279.505 175.324 279.224 173.91 278.939 172.497C277.074 162.93 276.904 153.464 276.905 143.748C276.904 141.605 276.888 139.461 276.873 137.318C276.85 130.31 276.977 123.648 278.653 116.8C278.954 115.417 279.253 114.034 279.553 112.65C279.784 111.644 280.015 110.637 280.253 109.6C279.989 110.128 279.725 110.656 279.453 111.2C278.134 111.767 276.797 112.295 275.453 112.8C274.181 113.438 272.914 114.089 271.653 114.75C261.569 119.785 251.31 121.427 240.253 118.4C231.344 115.227 224.641 108.54 219.453 100.8C218.33 103.005 217.293 105.232 216.303 107.5C215.339 109.69 214.34 111.815 213.253 113.95C212.136 115.859 212.136 115.86 212.253 117.6H210.653C207.054 124.091 203.928 130.383 202.253 137.65C202.062 138.477 202.061 138.477 201.866 139.32C201.137 142.787 200.942 146.064 201.053 149.6L197.854 148.8C197.66 148.047 197.465 147.294 197.266 146.519C196.998 145.522 196.729 144.526 196.453 143.5C196.193 142.516 195.934 141.532 195.666 140.519C194.312 136.615 192.699 133.719 189.354 131.25C188.727 130.97 188.099 130.689 187.453 130.4L185.854 131.2C185.903 132.141 185.952 133.081 186.003 134.05C186.003 138.092 184.986 141.322 182.381 144.513C179.891 146.551 176.974 146.551 173.854 146.4C171.508 145.803 169.933 144.949 168.253 143.2C166.218 139.377 165.521 135.52 165.854 131.2C165.062 130.936 164.269 130.672 163.453 130.4C161.744 126.224 161.318 121.234 161.854 116.8C163.753 115.25 163.754 115.25 165.854 114.4C166.381 114.136 166.909 113.872 167.453 113.6C166.975 107.586 166.246 101.657 165.303 95.7002C165.167 94.8289 165.032 93.9573 164.893 93.0596C164.032 87.5583 163.138 82.0623 162.231 76.5684C162.018 75.2699 161.804 73.9713 161.591 72.6729C161.178 70.1601 160.76 67.6481 160.339 65.1367C158.953 56.7831 157.91 48.4239 157.053 40C156.261 41.0559 155.469 42.1123 154.653 43.2002C154.917 41.0882 155.181 38.9758 155.453 36.7998H152.253C152.147 37.4165 152.041 38.0336 151.932 38.6689ZM168.253 272C167.989 273.056 167.725 274.112 167.453 275.2L165.053 272.8L165.853 271.2C166.645 271.464 167.437 271.728 168.253 272ZM54.7031 179.95C53.8508 179.954 52.9983 179.957 52.1201 179.961C50.0312 179.97 47.9424 179.983 45.8535 180C45.5895 180.528 45.3247 181.056 45.0527 181.6C45.5882 181.636 46.1241 181.672 46.6758 181.709C49.1522 181.88 51.6281 182.065 54.1035 182.25C54.9453 182.306 55.787 182.362 56.6543 182.42C63.0586 182.913 69.1675 183.937 75.1045 186.478C77.2067 187.385 77.2069 187.386 80.2529 187.2V188.8C80.6799 188.984 81.107 189.169 81.5469 189.359C88.3252 192.326 94.8041 195.193 100.578 199.891C101.809 200.955 101.809 200.955 103.453 200.8C104.245 202.384 104.245 202.384 105.053 204H106.653V205.6C107.543 206.366 108.467 207.092 109.403 207.8C116.864 214.132 122.244 223.926 123.453 233.6C124.509 233.336 125.565 233.072 126.653 232.8V231.2H125.053C124.998 230.163 124.944 229.125 124.888 228.057C124.397 223.677 122.711 220.459 120.503 216.7C119.996 215.789 119.996 215.789 119.479 214.859C117.243 210.94 114.792 207.082 111.453 204H109.854V202.4C108.539 201.311 107.201 200.248 105.854 199.2C105.276 198.573 104.698 197.946 104.104 197.3C98.663 192.222 88.5908 185.6 81.0527 185.6V184C79.3042 183.479 77.5537 182.963 75.8027 182.45C74.8283 182.163 73.8536 181.875 72.8496 181.578C66.756 179.996 60.9569 179.9 54.7031 179.95ZM207.453 12C207.997 12.0206 208.542 12.0413 209.103 12.0625C225.975 13.0497 243.228 19.2671 258.019 27.2393C259.548 28.0507 261.094 28.8215 262.646 29.5879C265.72 31.1167 268.721 32.7511 271.703 34.4502C272.431 34.856 272.431 34.8564 273.173 35.2705C275.594 36.6474 277.528 38.0092 279.453 40C281.192 41.2529 282.94 42.4823 284.703 43.7002C289.693 47.2078 294.205 51.0209 298.652 55.2002C300.281 56.689 301.917 58.1693 303.553 59.6504C304.853 60.8335 306.153 62.0166 307.453 63.2002C306.108 66.1923 304.5 67.6487 301.853 69.5996C298.333 68.668 296.921 66.9139 294.696 64.1533C291.274 60.5037 287.126 57.6226 283.152 54.6035C282.092 53.7849 281.058 52.9331 280.031 52.0723C273.676 46.7488 266.046 42.8969 258.652 39.2002V37.5996C257.955 37.381 257.258 37.1627 256.54 36.9375C253.991 36.0482 251.673 34.9907 249.253 33.7998C225.016 22.5528 199.497 18.8639 173.046 19.1875L169.938 19.2217C168.553 19.2432 168.553 19.2436 167.141 19.2656C165.053 19.2002 165.053 19.2001 164.253 18.4004C163.989 15.7605 163.725 13.1202 163.453 10.4004H207.453V12Z" fill="#C5D4D7"/>
</svg>
